<?xml version="1.0" encoding="UTF-8"?>
<svg xmlns="http://www.w3.org/2000/svg" xmlns:xlink="http://www.w3.org/1999/xlink" width="375pt" height="374.999991pt" viewBox="0 0 375 374.999991" version="1.2">
<g id="surface1">
<path style=" stroke:none;fill-rule:nonzero;fill:rgb(0%,5.488586%,55.288696%);fill-opacity:1;" d="M 234.074219 316.402344 L 116.050781 78.886719 L 109.273438 82.253906 L 241.433594 348.226562 L 248.210938 344.855469 Z M 234.074219 316.402344 "/>
<path style=" stroke:none;fill-rule:nonzero;fill:rgb(85.099792%,85.099792%,85.099792%);fill-opacity:1;" d="M 259.179688 75.742188 L 100.820312 346.257812 L 106.542969 349.605469 L 278.84375 55.273438 L 273.125 51.925781 Z M 259.179688 75.742188 "/>
<path style=" stroke:none;fill-rule:nonzero;fill:rgb(45.098877%,45.098877%,45.098877%);fill-opacity:1;" d="M 252.347656 65.328125 L 108.007812 311.898438 L 113.730469 315.246094 L 272.007812 44.867188 L 266.285156 41.515625 Z M 252.347656 65.328125 "/>
<path style=" stroke:none;fill-rule:nonzero;fill:rgb(65.098572%,65.098572%,65.098572%);fill-opacity:1;" d="M 245.605469 54.941406 L 115.25 277.621094 L 121 280.984375 L 265.292969 34.496094 L 259.546875 31.128906 Z M 245.605469 54.941406 "/>
<path style=" stroke:none;fill-rule:nonzero;fill:rgb(85.099792%,85.099792%,85.099792%);fill-opacity:1;" d="M 238.480469 44.34375 L 122.121094 243.113281 L 127.792969 246.433594 L 258.09375 23.851562 L 252.421875 20.527344 Z M 238.480469 44.34375 "/>
<path style=" stroke:none;fill-rule:nonzero;fill:rgb(36.859131%,9.01947%,92.158508%);fill-opacity:1;" d="M 255.355469 330.832031 L 94.722656 7.558594 L 87.886719 10.953125 L 262.644531 362.660156 L 269.480469 359.265625 Z M 255.355469 330.832031 "/>
<path style=" stroke:none;fill-rule:nonzero;fill:rgb(19.999695%,0%,100%);fill-opacity:1;" d="M 255.378906 302.292969 L 123.164062 36.207031 L 116.292969 39.621094 L 262.648438 334.160156 L 269.519531 330.746094 Z M 255.378906 302.292969 "/>
<path style=" stroke:none;fill-rule:nonzero;fill:rgb(41.958618%,27.449036%,100%);fill-opacity:1;" d="M 277.183594 316.402344 L 159.160156 78.886719 L 152.382812 82.253906 L 284.542969 348.226562 L 291.320312 344.855469 Z M 277.183594 316.402344 "/>
</g>
</svg>
